<?xml version="1.0" encoding="UTF-8"?>
<svg version="1.1" viewBox="0 0 800 800" xml:space="preserve" xmlns="http://www.w3.org/2000/svg"><defs><clipPath id="a"><path d="m0 600h600v-600h-600z"/></clipPath></defs><g transform="matrix(1.3333 0 0 -1.3333 0 800)"><g clip-path="url(#a)" fill-rule="evenodd"><path d="m123.03 88.485c29.33 0 53.252 5.875 53.252 13.078 0 7.206-23.922 13.081-53.252 13.081-29.331 0-53.252-5.875-53.252-13.081 0-7.203 23.921-13.078 53.252-13.078" fill="#e6e6e6"/><path d="m311.19 88.485c29.333 0 53.253 5.875 53.253 13.078 0 7.206-23.92 13.081-53.253 13.081-29.33 0-53.251-5.875-53.251-13.081 0-7.203 23.921-13.078 53.251-13.078" fill="#e6e6e6"/><path d="m489.37 88.485c29.33 0 53.251 5.875 53.251 13.078 0 7.206-23.921 13.081-53.251 13.081s-53.252-5.875-53.252-13.081c0-7.203 23.922-13.078 53.252-13.078" fill="#e6e6e6"/><path d="m275.88 491.85h70.633v-276.25c-18.642-18.642-35.079-74.035-35.317-93.479-0.176 19.444-18.966 77.129-35.316 93.479z" fill="#ccc"/><path d="m311.19 491.85h35.317v-276.25c-18.642-18.642-35.079-74.035-35.317-93.479z" fill="#bfbfbf"/><path d="m203.92 500.39h214.55c5.477 0 9.956-4.48 9.956-9.957s-4.479-9.957-9.956-9.957h-214.55c-5.476 0-9.957 4.48-9.957 9.957s4.481 9.957 9.957 9.957" fill="#b3b3b3"/><path d="m311.19 500.39h107.28c5.477 0 9.956-4.48 9.956-9.957s-4.479-9.957-9.956-9.957h-107.28z" fill="#a3a3a3"/><path d="m311.19 525.36c30.995 0 58.198-9.97 73.588-24.976h-147.18c15.39 15.006 42.592 24.976 73.587 24.976" fill="#ccc"/><path d="m311.19 525.36c30.995 0 58.198-9.97 73.588-24.976h-73.588z" fill="#bfbfbf"/><path d="m87.71 546.85h70.636v-331.25c-18.644-18.642-35.081-74.035-35.318-93.479-0.179 19.444-18.967 77.129-35.318 93.479z" fill="#3d3d3d"/><path d="m123.03 546.85h35.318v-331.25c-18.644-18.642-35.081-74.035-35.318-93.479z" fill="#333"/><path d="m35.467 546.85h175.12v19.915h-175.12z" fill="#3d3d3d"/><path d="m123.03 566.76h87.559v-19.915h-87.559z" fill="#333"/><path d="m158.35 535.47h-70.636c-12.471 7.324-30.918 10.38-52.243 11.38h175.12c-18.739-1.038-39.361-2.007-52.241-11.38" fill="#1a1a1a"/><path d="m158.35 535.47h-35.318v11.38h87.559c-18.739-1.038-39.361-2.007-52.241-11.38"/><path d="m87.71 468.78-15.14-14.312 15.14-4.022 70.636 33.117 15.138 18.369-15.138-0.035zm0-42.524c23.545 11.038 47.09 22.077 70.636 33.117 5.047 0.011 10.092 0.023 15.138 0.035-5.046-6.123-10.091-12.246-15.138-18.37-23.546-11.039-47.091-22.077-70.636-33.116-5.046 1.34-10.093 2.681-15.14 4.022 5.047 4.77 10.094 9.541 15.14 14.312m0-42.524c-5.046-4.771-10.093-9.541-15.14-14.311 5.047-1.341 10.094-2.682 15.14-4.024 23.545 11.04 47.09 22.079 70.636 33.117 5.047 6.123 10.092 12.247 15.138 18.37-5.046-0.012-10.091-0.024-15.138-0.035-23.546-11.041-47.091-22.079-70.636-33.117m0-42.526c23.545 11.038 47.09 22.078 70.636 33.117 5.047 0.012 10.092 0.024 15.138 0.037-5.046-6.124-10.091-12.248-15.138-18.371-23.546-11.039-47.091-22.077-70.636-33.117-5.046 1.342-10.093 2.683-15.14 4.022 5.047 4.771 10.094 9.543 15.14 14.312m0-42.523c-5.046-4.77-10.093-9.542-15.14-14.312 5.047-1.341 10.094-2.682 15.14-4.021 23.545 11.039 47.09 22.077 70.636 33.116 5.047 6.121 10.092 12.245 15.138 18.369-5.046-0.013-10.091-0.024-15.138-0.036-23.546-11.038-47.091-22.076-70.636-33.116m0-42.525 70.636 33.116 15.138 0.037-15.138-18.37-70.636-33.116-15.14 4.022z" fill="#545454"/><path d="m123.03 315.24v-18.334l35.318 16.559c5.047 6.121 10.092 12.245 15.138 18.369-5.046-0.013-10.091-0.024-15.138-0.036zm0 42.523v-18.332l35.318 16.557c5.047 6.123 10.092 12.247 15.138 18.371-5.046-0.013-10.091-0.025-15.138-0.037zm0 42.527v-18.334l35.318 16.557c5.047 6.123 10.092 12.247 15.138 18.37-5.046-0.012-10.091-0.024-15.138-0.035zm0 42.522v-18.334l35.318 16.559c5.047 6.124 10.092 12.247 15.138 18.37-5.046-0.012-10.091-0.024-15.138-0.035zm0 42.526v-18.334l35.318 16.558 15.138 18.369-15.138-0.035zm0-212.62 35.318 16.558 15.138 0.037-15.138-18.37-35.318-16.559z" fill="#424242"/><path d="m72.57 454.47 15.14-4.022 70.636 33.117 15.138 18.369zm0-42.524c33.638 15.821 67.277 31.643 100.91 47.464-5.046-6.123-10.091-12.246-15.138-18.37-23.546-11.039-47.091-22.077-70.636-33.116-5.046 1.34-10.093 2.681-15.14 4.022m0-42.523c5.047-1.341 10.094-2.682 15.14-4.024 23.545 11.04 47.09 22.079 70.636 33.117 5.047 6.123 10.092 12.247 15.138 18.37-33.637-15.822-67.276-31.643-100.91-47.463m0-42.527c33.638 15.822 67.277 31.644 100.91 47.466-5.046-6.124-10.091-12.248-15.138-18.371-23.546-11.039-47.091-22.077-70.636-33.117-5.046 1.342-10.093 2.683-15.14 4.022m0-42.523c5.047-1.341 10.094-2.682 15.14-4.021 23.545 11.039 47.09 22.077 70.636 33.116 5.047 6.121 10.092 12.245 15.138 18.369-33.637-15.82-67.276-31.644-100.91-47.464m0-42.524 100.91 47.464-15.138-18.37-70.636-33.116z" fill="#1a1a1a"/><path d="m123.03 308.1v-11.196l35.318 16.559c5.047 6.121 10.092 12.245 15.138 18.369zm0 42.523v-11.194l35.318 16.557c5.047 6.123 10.092 12.247 15.138 18.371zm0 42.525v-11.194l35.318 16.557c5.047 6.123 10.092 12.247 15.138 18.37zm0 42.525v-11.197l35.318 16.559c5.047 6.124 10.092 12.247 15.138 18.37zm0 42.524v-11.195l35.318 16.558 15.138 18.369zm0-212.62 50.456 23.733-15.138-18.37-35.318-16.559z"/><path d="m87.71 275.59v4.76c23.545 11.039 47.09 22.077 70.636 33.116v-4.654c-23.546-11.073-47.091-22.148-70.636-33.222m0 42.525v4.757c23.545 11.04 47.09 22.079 70.636 33.119v-4.654c-23.546-11.075-47.091-22.148-70.636-33.222m0 42.525v4.757c23.545 11.04 47.09 22.079 70.636 33.119v-4.654c-23.546-11.075-47.091-22.148-70.636-33.222m0 42.523v4.759c23.545 11.039 47.09 22.077 70.636 33.117v-4.653c-23.546-11.074-47.091-22.147-70.636-33.223m0 42.524v4.759l70.636 33.117v-4.653zm0-212.62v4.761l70.636 33.116v-4.652z" fill="#303030"/><path d="m123.03 296.91v-4.705l35.318 16.61v4.654zm0 42.525v-4.706l35.318 16.611v4.654zm0 42.525v-4.707l35.318 16.612v4.654zm0 42.523v-4.705l35.318 16.611v4.653zm0 42.525v-4.706l35.318 16.611v4.653zm0-212.62 35.318 16.559v-4.652l-35.318-16.613z" fill="#292929"/><path d="m87.71 530.63h70.636v4.837h-70.636z" fill="#333"/><path d="m123.03 535.47h35.318v-4.837h-35.318z" fill="#292929"/><path d="m275.88 472.6h70.634v7.88h-70.634z" fill="#c2c2c2"/><path d="m311.19 480.48h35.316v-7.881h-35.316z" fill="#b5b5b5"/><path d="m454.05 546.85h70.636v-331.25c-18.643-18.642-35.082-74.035-35.318-93.479-0.178 19.444-18.968 77.129-35.318 93.479z" fill="#3d3d3d"/><path d="m489.37 546.85h35.318v-331.25c-18.643-18.642-35.082-74.035-35.318-93.479z" fill="#333"/><path d="m401.81 546.85h175.12v19.915h-175.12z" fill="#3d3d3d"/><path d="m489.37 566.76h87.559v-19.915h-87.559z" fill="#333"/><path d="m524.69 535.47h-70.636c-12.47 7.324-30.918 10.38-52.241 11.38h175.12c-18.74-1.038-39.361-2.007-52.241-11.38" fill="#1a1a1a"/><path d="m524.69 535.47h-35.318v11.38h87.559c-18.74-1.038-39.361-2.007-52.241-11.38"/><path d="m275.88 426.26c23.545 11.038 47.091 22.077 70.636 33.117 5.047 0.011 10.091 0.023 15.137 0.035-5.046-6.123-10.09-12.246-15.137-18.37-23.545-11.039-47.091-22.077-70.636-33.116-5.047 1.34-10.094 2.681-15.141 4.022 5.047 4.77 10.094 9.541 15.141 14.312m0-42.524c-5.047-4.771-10.094-9.541-15.141-14.311 5.047-1.341 10.094-2.682 15.141-4.024 23.545 11.04 47.091 22.079 70.636 33.117 5.047 6.123 10.091 12.247 15.137 18.37-5.046-0.012-10.09-0.024-15.137-0.035-23.545-11.041-47.091-22.079-70.636-33.117m0-42.526c23.545 11.038 47.091 22.078 70.636 33.117 5.047 0.012 10.091 0.024 15.137 0.037-5.046-6.124-10.09-12.248-15.137-18.371-23.545-11.039-47.091-22.077-70.636-33.117-5.047 1.342-10.094 2.683-15.141 4.022 5.047 4.771 10.094 9.543 15.141 14.312m0-42.523c-5.047-4.77-10.094-9.542-15.141-14.312 5.047-1.341 10.094-2.682 15.141-4.021 23.545 11.039 47.091 22.077 70.636 33.116 5.047 6.121 10.091 12.245 15.137 18.369-5.046-0.013-10.09-0.024-15.137-0.036-23.545-11.038-47.091-22.076-70.636-33.116m0-42.525 70.636 33.116 15.137 0.037-15.137-18.37-70.636-33.116-15.141 4.022z" fill="#e6e6e6"/><path d="m311.19 442.81v-18.334l35.32 16.559c5.047 6.124 10.091 12.247 15.137 18.37-5.046-0.012-10.09-0.024-15.137-0.035zm0-42.522v-18.334l35.32 16.557c5.047 6.123 10.091 12.247 15.137 18.37-5.046-0.012-10.09-0.024-15.137-0.035zm0-42.527v-18.332l35.32 16.557c5.047 6.123 10.091 12.247 15.137 18.371-5.046-0.013-10.09-0.025-15.137-0.037zm0-42.523v-18.334l35.32 16.559c5.047 6.121 10.091 12.245 15.137 18.369-5.046-0.013-10.09-0.024-15.137-0.036zm0-42.525 35.32 16.558 15.137 0.037-15.137-18.37-35.32-16.559z" fill="#d4d4d4"/><path d="m346.51 355.99v2e-3l-35.32-16.559zm0 42.525v2e-3l-35.32-16.559zm0 42.524v1e-3l-35.32-16.559v-1e-3z" fill="#424242"/><path d="m260.74 411.94c33.639 15.821 67.278 31.643 100.91 47.464-5.046-6.123-10.09-12.246-15.137-18.37-23.545-11.039-47.091-22.077-70.636-33.116-5.047 1.34-10.094 2.681-15.141 4.022" fill="#b3b3b3"/><path d="m260.74 369.42c33.639 15.82 67.278 31.641 100.91 47.463-5.046-6.123-10.09-12.247-15.137-18.37-23.545-11.038-47.091-22.077-70.636-33.117-5.047 1.342-10.094 2.683-15.141 4.024" fill="#b3b3b3"/><path d="m260.74 326.9c33.639 15.822 67.278 31.644 100.91 47.466-5.046-6.124-10.09-12.248-15.137-18.371-23.545-11.039-47.091-22.077-70.636-33.117-5.047 1.342-10.094 2.683-15.141 4.022" fill="#b3b3b3"/><path d="m260.74 284.37c33.639 15.82 67.278 31.644 100.91 47.464-5.046-6.124-10.09-12.248-15.137-18.369-23.545-11.039-47.091-22.077-70.636-33.116-5.047 1.339-10.094 2.68-15.141 4.021" fill="#b3b3b3"/><path d="m260.74 241.85 100.91 47.464-15.137-18.37-70.636-33.116z" fill="#b3b3b3"/><path d="m311.19 435.68v-11.197l35.32 16.559c5.047 6.124 10.091 12.247 15.137 18.37zm0-42.525v-11.194l35.32 16.557c5.047 6.123 10.091 12.247 15.137 18.37zm0-42.525v-11.194l35.32 16.557c5.047 6.123 10.091 12.247 15.137 18.371zm0-42.523v-11.196l35.32 16.559c5.047 6.121 10.091 12.245 15.137 18.369zm0-42.525 50.457 23.733-15.137-18.37-35.32-16.559z" fill="#a8a8a8"/><path d="m275.88 403.16v4.759c23.545 11.039 47.091 22.077 70.636 33.117v-4.653c-23.545-11.074-47.091-22.147-70.636-33.223m0-42.523v4.757c23.545 11.04 47.091 22.079 70.636 33.119v-4.654c-23.545-11.075-47.091-22.148-70.636-33.222m0-42.525v4.757c23.545 11.04 47.091 22.079 70.636 33.119v-4.654c-23.545-11.075-47.091-22.148-70.636-33.222m0-42.525v4.76c23.545 11.039 47.091 22.077 70.636 33.116v-4.654c-23.545-11.073-47.091-22.148-70.636-33.222m0-42.526v4.761l70.636 33.116v-4.652z" fill="#bfbfbf"/><path d="m311.19 424.48v-4.705l35.32 16.611v4.653zm0-42.523v-4.707l35.32 16.612v4.654zm0-42.525v-4.706l35.32 16.611v4.654zm0-42.525v-4.705l35.32 16.61v4.654zm0-42.525 35.32 16.559v-4.652l-35.32-16.613z" fill="#b5b5b5"/><path d="m454.05 530.63h70.637v4.837h-70.637z" fill="#333"/><path d="m489.37 535.47h35.318v-4.837h-35.318z" fill="#292929"/></g></g></svg>
